HIERARCHY
ROOT pelvis
{
  OFFSET 0 100 0
  CHANNELS 6 Xposition Yposition Zposition Zrotation Xrotation Yrotation
  JOINT pelvis_right_femur
  {
    OFFSET -10.78128 -3.44521 -0.5502486
    CHANNELS 3 Zrotation Xrotation Yrotation
    JOINT right_femur_tibia
    {
      OFFSET -0.8047443 -44.0398 -0.1307829
      CHANNELS 3 Zrotation Xrotation Yrotation
      JOINT right_tibia_foot
      {
        OFFSET 3.006224 -47.83518 -5
        CHANNELS 3 Zrotation Xrotation Yrotation
        End Site
        {
          OFFSET 0 -5 15
        }
      }
    }
  }
  JOINT pelvis_left_femur
  {
    OFFSET 10.78128 -3.44521 -0.5502486
    CHANNELS 3 Zrotation Xrotation Yrotation
    JOINT left_femur_tibia
    {
      OFFSET 0.8047443 -44.0398 -0.1307829
      CHANNELS 3 Zrotation Xrotation Yrotation
      JOINT left_tibia_foot
      {
        OFFSET -4.370144 -48.10324 -4.275266
        CHANNELS 3 Zrotation Xrotation Yrotation
        End Site
        {
          OFFSET 0 -5 15
        }
      }
    }
  }
  JOINT pelvis_spine1
  {
    OFFSET 0 6.468898 -3.129235
    CHANNELS 3 Zrotation Xrotation Yrotation
    JOINT spine1
    {
      OFFSET 0 23.15396 4.99043
      CHANNELS 3 Zrotation Xrotation Yrotation
      JOINT spine2
      {
        OFFSET 0 20.79997 -5.064912
        CHANNELS 3 Zrotation Xrotation Yrotation
        JOINT neck
        {
          OFFSET 0 14.38658 9.616178
          CHANNELS 3 Zrotation Xrotation Yrotation
          End Site
          {
            OFFSET 0 20 0
          }
        }
      }
      JOINT right_manubrium
      {
        OFFSET -5.722621 16.35077 3.967754
        CHANNELS 3 Zrotation Xrotation Yrotation
        JOINT right_clavicle
        {
          OFFSET -13.16364 1.694482 -4.693211
          CHANNELS 3 Zrotation Xrotation Yrotation
          JOINT right_humerus
          {
            OFFSET -28.5034 -0.3100689 -2.792744
            CHANNELS 3 Zrotation Xrotation Yrotation
            JOINT right_radius
            {
              OFFSET -25.15693 0.02248979 -1.271978
              CHANNELS 3 Zrotation Xrotation Yrotation
              End Site
              {
                OFFSET -15 0 0
              }
            }
          }
        }
      }
      JOINT left_manubrium
      {
        OFFSET 5.722621 16.35077 3.967754
        CHANNELS 3 Zrotation Xrotation Yrotation
        JOINT left_clavicle
        {
          OFFSET 13.16364 1.694482 -4.693211
          CHANNELS 3 Zrotation Xrotation Yrotation
          JOINT left_humerus
          {
            OFFSET 29.39168 -1.063119 -2.237045
            CHANNELS 3 Zrotation Xrotation Yrotation
            JOINT left_radius
            {
              OFFSET 24.59957 -0.9528479 0.9047498
              CHANNELS 3 Zrotation Xrotation Yrotation
              End Site
              {
                OFFSET 15 -0 -0
              }
            }
          }
        }
      }
    }
  }
}
MOTION
Frames: 15
Frame Time: 0.0416666666667
-1694.582 104.7739 276.0448 -0.8872656 15.28295 -176.7032 3.59971 2.836838 -4.5787 -0 31.44638 -0 -11.58441 7.281266 -0.5676257 -3.190492 1.32012 -8.970935 -0 20.21457 -0 3.216401 -8.715424 20.9654 1.011382 -1.600967 3.156491 -1.304023 14.7933 -3.318786 3.166568 26.03877 3.500907 0.9670326 -18.47404 7.452227 -6.872709 -23.68377 11.71682 97.74372 4.61614 -12.55135 -0 0 11.62301 -27.07825 7.74971 12.65405 5.733508 -23.1133 -9.18447 -92.48423 12.06799 19.54873 0 0 -6.892446 17.61869 20.48871 -7.959287
-1695.187 104.7657 270.7562 -0.7833759 15.311 -177.1022 3.613274 2.92271 -4.575665 -0 31.4122 -0 -11.57899 7.261612 -0.5819818 -3.17807 1.272146 -8.958912 -0 20.26269 -0 3.199244 -8.68692 20.97158 1.017352 -1.602524 3.164164 -1.307937 14.79804 -3.310846 3.174961 26.03948 3.483941 0.9585655 -18.45908 7.446303 -6.888113 -23.69911 11.71398 97.75306 4.580438 -12.52669 -0 0 11.65452 -27.09161 7.759561 12.66181 5.727555 -23.0993 -9.188799 -92.50681 12.06554 19.58325 0 0 -6.842123 17.58947 20.49986 -7.93335
-1695.757 104.759 265.4609 -0.6784348 15.33648 -177.5041 3.624931 3.019785 -4.568625 -0 31.39559 -0 -11.57243 7.24403 -0.5947782 -3.166701 1.216265 -8.950681 -0 20.29611 -0 3.182129 -8.657547 20.98019 1.022096 -1.603434 3.172503 -1.311941 14.8015 -3.301082 3.183384 26.03926 3.46765 0.9503888 -18.44714 7.441531 -6.90089 -23.71649 11.71044 97.75765 4.549928 -12.49542 -0 0 11.69318 -27.10216 7.768307 12.67199 5.72131 -23.07959 -9.189943 -92.5353 12.06474 19.62722 0 0 -6.777839 17.55654 20.50879 -7.902479
-1696.294 104.7541 260.1599 -0.572606 15.35854 -177.9083 3.634212 3.12387 -4.557948 -0 31.39689 -0 -11.56501 7.22923 -0.6054871 -3.156849 1.154925 -8.946502 -0 20.31356 -0 3.165754 -8.628553 20.99082 1.025438 -1.603678 3.181159 -1.315863 14.80355 -3.289926 3.191486 26.03812 3.452702 0.9428324 -18.43867 7.438094 -6.910556 -23.73517 11.70636 97.75737 4.525788 -12.45892 -0 0 11.73729 -27.10953 7.77561 12.68414 5.715039 -23.05508 -9.187887 -92.56842 12.06555 19.67869 0 0 -6.702511 17.52133 20.51512 -7.868033
-1696.797 104.7509 254.8541 -0.4661086 15.37644 -178.314 3.640743 3.230568 -4.544144 -0 31.41572 -0 -11.55703 7.217833 -0.6136786 -3.148917 1.090781 -8.946467 -0 20.31455 -0 3.150778 -8.601145 21.00296 1.027256 -1.60327 3.18978 -1.319545 14.80414 -3.27786 3.198937 26.0361 3.439695 0.9361963 -18.43399 7.436117 -6.916776 -23.75437 11.7019 97.75233 4.508893 -12.41879 -0 0 11.78494 -27.11346 7.781189 12.69774 5.709 -23.02687 -9.182761 -92.60472 12.06789 19.7354 0 0 -6.619476 17.48533 20.5186 -7.831501
-1697.266 104.7493 249.5445 -0.3592028 15.38963 -178.7205 3.64427 3.33546 -4.527842 -0 31.45101 -0 -11.54884 7.210335 -0.61904 -3.143233 1.026578 -8.950497 -0 20.29936 -0 3.137792 -8.576437 21.01607 1.027494 -1.602252 3.198015 -1.322843 14.80325 -3.265395 3.205442 26.03331 3.429139 0.9307388 -18.43322 7.435664 -6.919369 -23.77327 11.69723 97.74283 4.499794 -12.37677 -0 0 11.83406 -27.11387 7.784829 12.71221 5.703438 -22.99619 -9.174822 -92.64262 12.0716 19.7949 0 0 -6.532331 17.45007 20.51908 -7.794438
-1697.702 104.7494 244.2323 -0.2521734 15.39776 -179.1269 3.64467 3.434287 -4.509758 -0 31.50109 -0 -11.54079 7.207076 -0.6213887 -3.140028 0.9650225 -8.958357 -0 20.26897 -0 3.127299 -8.555401 21.02958 1.026159 -1.600694 3.205536 -1.325638 14.80097 -3.253047 3.210755 26.02988 3.421428 0.9266665 -18.43633 7.436734 -6.918312 -23.79109 11.69255 97.72938 4.498703 -12.33463 -0 0 11.88256 -27.11082 7.786397 12.72694 5.698567 -22.96437 -9.164453 -92.68053 12.07649 19.85466 0 0 -6.444778 17.41699 20.5166 -7.758399
-1698.106 104.751 238.9183 -0.1453101 15.40069 -179.5325 3.641956 3.523111 -4.490662 -0 31.56374 -0 -11.53321 7.208215 -0.6206783 -3.139429 0.9086664 -8.96966 -0 20.22504 -0 3.119694 -8.538836 21.04295 1.023326 -1.598684 3.212048 -1.327835 14.79742 -3.24132 3.214682 26.02598 3.416835 0.9241272 -18.44312 7.439262 -6.913734 -23.8071 11.68804 97.71263 4.505493 -12.29414 -0 0 11.92839 -27.10451 7.785843 12.74131 5.694571 -22.93276 -9.152134 -92.71685 12.08234 19.91216 0 0 -6.36046 17.38745 20.51129 -7.724869
-1698.477 104.7539 233.6035 -0.03888946 15.39847 -179.9364 3.636279 3.598473 -4.47135 -0 31.63626 -0 -11.52644 7.213713 -0.6169968 -3.141443 0.8597922 -8.983894 -0 20.16976 -0 3.115252 -8.527334 21.05565 1.01913 -1.596321 3.217298 -1.329365 14.79278 -3.230683 3.217092 26.0218 3.415496 0.923204 -18.45323 7.443123 -6.905901 -23.82066 11.68389 97.69337 4.519722 -12.25696 -0 0 11.96967 -27.09527 7.783205 12.75471 5.691591 -22.90267 -9.138422 -92.75011 12.0889 19.96504 0 0 -6.282809 17.36263 20.50344 -7.695208
-1698.816 104.7578 228.2887 0.06684319 15.39134 179.6619 3.627919 3.657511 -4.452613 -0 31.7156 -0 -11.52076 7.223325 -0.6105591 -3.14596 0.8203184 -9.000437 -0 20.10576 -0 3.114116 -8.521264 21.06718 1.013763 -1.593713 3.221087 -1.330187 14.78729 -3.221552 3.217916 26.01754 3.417409 0.9239129 -18.46616 7.448138 -6.895202 -23.83122 11.68025 97.67246 4.540656 -12.22458 -0 0 12.0047 -27.08353 7.778612 12.76658 5.689728 -22.87532 -9.123927 -92.77898 12.09591 20.01118 0 0 -6.214905 17.34348 20.49343 -7.670587
-1699.122 104.7626 222.9748 0.1716875 15.37972 179.2631 3.617277 3.69807 -4.4352 -0 31.79848 -0 -11.5164 7.236605 -0.6016929 -3.152757 0.7917229 -9.018587 -0 20.03593 -0 3.116293 -8.520769 21.07714 1.007465 -1.590971 3.223278 -1.330286 14.7812 -3.214279 3.21715 26.01341 3.422441 0.9262022 -18.48133 7.454079 -6.882127 -23.83841 11.67729 97.65081 4.567313 -12.19827 -0 0 12.03214 -27.06983 7.772275 12.77645 5.689035 -22.8518 -9.109276 -92.80234 12.10308 20.04877 0 0 -6.159365 17.33071 20.48176 -7.651949
-1699.396 104.7678 217.6622 0.2754986 15.36415 178.8675 3.604845 3.718774 -4.419798 -0 31.88148 -0 -11.51354 7.252929 -0.5908202 -3.161505 0.7749913 -9.037585 -0 19.96329 -0 3.121651 -8.52576 21.08516 1.000513 -1.588201 3.2238 -1.329671 14.77477 -3.209132 3.214853 26.00957 3.43033 0.9299556 -18.49806 7.460683 -6.867248 -23.84196 11.67513 97.62932 4.598506 -12.17902 -0 0 12.05095 -27.05476 7.764481 12.78392 5.689521 -22.83303 -9.095091 -92.81934 12.11014 20.0764 0 0 -6.118243 17.32475 20.46896 -7.639969
-1699.637 104.7733 212.3516 0.3781931 15.34529 178.4755 3.59119 3.719068 -4.407 -0 31.96123 -0 -11.51227 7.271525 -0.5784353 -3.171792 0.770588 -9.05665 -0 19.89089 -0 3.129932 -8.535931 21.09096 0.9932103 -1.585508 3.222651 -1.328379 14.76828 -3.206291 3.21114 26.00619 3.440705 0.9349972 -18.51564 7.467662 -6.851191 -23.84179 11.67385 97.60887 4.632895 -12.1675 -0 0 12.06053 -27.03896 7.75558 12.78873 5.691148 -22.81968 -9.081954 -92.82939 12.11684 20.09312 0 0 -6.09296 17.32574 20.45563 -7.635034
-1699.845 104.7788 207.0434 0.4797502 15.32388 178.0871 3.576918 3.699232 -4.397287 -0 32.03447 -0 -11.51261 7.29152 -0.5650813 -3.183141 0.778453 -9.075005 -0 19.82163 -0 3.140756 -8.550777 21.09436 0.9858697 -1.582988 3.2199 -1.326467 14.762 -3.205841 3.206183 26.0034 3.453099 0.9410997 -18.53333 7.474719 -6.834616 -23.83798 11.6735 97.59025 4.669042 -12.16405 -0 0 12.06065 -27.02308 7.745968 12.79071 5.693835 -22.81221 -9.070392 -92.8322 12.12291 20.09842 0 0 -6.08427 17.33352 20.44232 -7.637232
-1700.02 104.7838 201.7377 0.5802092 15.30072 177.7024 3.562651 3.660358 -4.391011 -0 32.09825 -0 -11.51453 7.311983 -0.5513256 -3.195037 0.7980207 -9.091909 -0 19.7582 -0 3.153641 -8.569616 21.09525 0.9788017 -1.580728 3.215681 -1.324014 14.75617 -3.207766 3.200199 26.00128 3.46697 0.9479941 -18.5504 7.481557 -6.818189 -23.83075 11.6741 97.57417 4.705463 -12.16866 -0 0 12.0515 -27.00776 7.736067 12.78983 5.69746 -22.81083 -9.060848 -92.82778 12.12811 20.09232 0 0 -6.09224 17.34765 20.42961 -7.646351
